<svg width="320" height="200" viewBox="0 0 320 200" fill="none" xmlns="http://www.w3.org/2000/svg" role="img">
  <defs>
    <linearGradient id="g4" x1="0" y1="0" x2="320" y2="200" gradientUnits="userSpaceOnUse">
      <stop stop-color="#1E1B4B"/><stop offset="1" stop-color="#4338CA"/>
    </linearGradient>
    <radialGradient id="o4" cx="0" cy="0" r="1" gradientUnits="userSpaceOnUse"
      gradientTransform="translate(270 40) scale(165)">
      <stop stop-color="#818CF8" stop-opacity="0.55"/><stop offset="1" stop-color="#818CF8" stop-opacity="0"/>
    </radialGradient>
    <linearGradient id="s4" x1="0" y1="0" x2="0" y2="1">
      <stop stop-color="#fff" stop-opacity="0.22"/><stop offset="1" stop-color="#fff" stop-opacity="0.06"/>
    </linearGradient>
    <filter id="b4" x="-60%" y="-60%" width="220%" height="220%"><feGaussianBlur stdDeviation="10"/></filter>
    <clipPath id="c4"><rect width="320" height="200" rx="12"/></clipPath>
  </defs>
    <style>
      .fl4 { transform-box: fill-box; transform-origin: center;
             animation: f4 3.6s ease-in-out 1.5s infinite; }
      @keyframes f4 { 0%,100% { transform: translateY(0) } 50% { transform: translateY(-5px) } }
      .ey4 { transform-box: fill-box; transform-origin: center;
             animation: b4 5.4s ease-in-out 3.0s infinite; }
      @keyframes b4 { 0%,93%,100% { transform: scaleY(1) } 96% { transform: scaleY(0.12) } }
      .pl4 { transform-box: fill-box; transform-origin: center;
             animation: p4 2.8s ease-in-out infinite; }
      @keyframes p4 { 0%,100% { opacity: .55 } 50% { opacity: 1 } }
      @media (prefers-reduced-motion: reduce) {
        .fl4, .ey4, .pl4 { animation: none }
      }
    </style>
  <g clip-path="url(#c4)">
    <rect width="320" height="200" fill="url(#g4)"/>
    <rect width="320" height="200" fill="url(#o4)"/>
    <circle cx="96" cy="96" r="34" stroke="#fff" stroke-opacity="0.24" stroke-width="1.6" fill="none"/>
    <circle cx="96" cy="96" r="54" stroke="#fff" stroke-opacity="0.17" stroke-width="1.6" fill="none"/>
    <circle cx="96" cy="96" r="74" stroke="#fff" stroke-opacity="0.10" stroke-width="1.6" fill="none"/>
    <circle cx="96" cy="96" r="28" fill="#FBBF24" fill-opacity="0.26" filter="url(#b4)"/>
    <circle cx="96" cy="96" r="24" fill="url(#s4)" stroke="#fff" stroke-opacity="0.34"/>
    <path d="M96 82 v15 h11" stroke="#fff" stroke-width="2.4" stroke-linecap="round" stroke-linejoin="round" fill="none"/>
    <rect x="170" y="44" width="122" height="34" rx="11" fill="#fff" fill-opacity="0.14" stroke="#fff" stroke-opacity="0.24"/>
    <circle cx="188" cy="61" r="7" fill="#FBBF24" class="pl4"/>
    <rect x="202" y="54" width="70" height="5" rx="2.5" fill="#fff" fill-opacity="0.55"/>
    <rect x="202" y="65" width="46" height="5" rx="2.5" fill="#fff" fill-opacity="0.3"/>
    <g opacity="0.5">
      <rect x="178" y="86" width="106" height="28" rx="10" fill="#fff" fill-opacity="0.09" stroke="#fff" stroke-opacity="0.16"/>
      <rect x="194" y="97" width="58" height="5" rx="2.5" fill="#fff" fill-opacity="0.3"/>
    </g>
  <g transform="translate(226 150) scale(0.7)"><g class="fl4">
    <ellipse cx="0" cy="34" rx="24" ry="4.5" fill="#000" fill-opacity="0.13"/>
    <path d="M-24 2 L-33 12" stroke="#FFF6E6" stroke-width="7" stroke-linecap="round"/>
    <path d="M24 -2 L34 -18" stroke="#FFF6E6" stroke-width="7" stroke-linecap="round"/>
    <rect x="-26" y="-28" width="52" height="58" rx="24" fill="#FFF6E6"/>
    <ellipse cx="-16" cy="4" rx="6" ry="4" fill="#FBBF24" fill-opacity="0.5"/>
    <ellipse cx="16" cy="4" rx="6" ry="4" fill="#FBBF24" fill-opacity="0.5"/>
    <ellipse class="ey4" cx="-9" cy="-7" rx="4.2" ry="5.4" fill="#2A1259"/>
    <ellipse class="ey4" cx="9" cy="-7" rx="4.2" ry="5.4" fill="#2A1259"/>
    <path d="M-6 8 q6 6 12 0" stroke="#2A1259" stroke-width="2.6" stroke-linecap="round" fill="none"/>
  </g></g>
  </g>
</svg>
