<svg width="320" height="200" viewBox="0 0 320 200" fill="none" xmlns="http://www.w3.org/2000/svg" role="img">
  <defs>
    <linearGradient id="g2" x1="0" y1="0" x2="320" y2="200" gradientUnits="userSpaceOnUse">
      <stop stop-color="#4C1D95"/><stop offset="1" stop-color="#7C3AED"/>
    </linearGradient>
    <radialGradient id="o2" cx="0" cy="0" r="1" gradientUnits="userSpaceOnUse"
      gradientTransform="translate(250 30) scale(160)">
      <stop stop-color="#F0ABFC" stop-opacity="0.45"/><stop offset="1" stop-color="#F0ABFC" stop-opacity="0"/>
    </radialGradient>
    <linearGradient id="s2" x1="0" y1="0" x2="0" y2="1">
      <stop stop-color="#fff" stop-opacity="0.22"/><stop offset="1" stop-color="#fff" stop-opacity="0.06"/>
    </linearGradient>
    <filter id="b2" x="-60%" y="-60%" width="220%" height="220%">
      <feGaussianBlur stdDeviation="10"/>
    </filter>
    <clipPath id="c2"><rect width="320" height="200" rx="12"/></clipPath>
  </defs>
  <g clip-path="url(#c2)">
    <rect width="320" height="200" fill="url(#g2)"/>
    <rect width="320" height="200" fill="url(#o2)"/>
    <circle cx="182" cy="66" r="34" fill="#FBBF24" fill-opacity="0.28" filter="url(#b2)"/>
    <path d="M71 118 C 104 112, 132 96, 171 74" stroke="#fff" stroke-opacity="0.5" stroke-width="2" stroke-dasharray="5 6" stroke-linecap="round" fill="none"/>
    <rect x="60" y="120" width="22" height="30" rx="6" fill="#fff" fill-opacity="0.16" stroke="#fff" stroke-opacity="0.22"/>
    <rect x="94" y="100" width="22" height="50" rx="6" fill="#fff" fill-opacity="0.16" stroke="#fff" stroke-opacity="0.22"/>
    <rect x="128" y="110" width="22" height="40" rx="6" fill="#fff" fill-opacity="0.16" stroke="#fff" stroke-opacity="0.22"/>
    <rect x="162" y="80" width="22" height="70" rx="6" fill="#FBBF24"/>
    <rect x="56" y="152" width="128" height="3" rx="1.5" fill="#fff" fill-opacity="0.22"/>
    <g>
      <rect x="204" y="54" width="76" height="46" rx="12" fill="url(#s2)" stroke="#fff" stroke-opacity="0.26"/>
      <text x="242" y="82" font-family="Georgia, serif" font-size="21" font-weight="700" fill="#fff" text-anchor="middle">88.4</text>
      <circle cx="271" cy="63" r="5" fill="#FBBF24"/>
    </g>
    <circle cx="232" cy="128" r="1.1" fill="#fff" fill-opacity="0.1"/>
    <circle cx="245" cy="128" r="1.1" fill="#fff" fill-opacity="0.1"/>
    <circle cx="258" cy="128" r="1.1" fill="#fff" fill-opacity="0.1"/>
    <circle cx="271" cy="128" r="1.1" fill="#fff" fill-opacity="0.1"/>
    <circle cx="232" cy="141" r="1.1" fill="#fff" fill-opacity="0.1"/>
    <circle cx="245" cy="141" r="1.1" fill="#fff" fill-opacity="0.1"/>
    <circle cx="258" cy="141" r="1.1" fill="#fff" fill-opacity="0.1"/>
    <circle cx="271" cy="141" r="1.1" fill="#fff" fill-opacity="0.1"/>
    <circle cx="232" cy="154" r="1.1" fill="#fff" fill-opacity="0.1"/>
    <circle cx="245" cy="154" r="1.1" fill="#fff" fill-opacity="0.1"/>
    <circle cx="258" cy="154" r="1.1" fill="#fff" fill-opacity="0.1"/>
    <circle cx="271" cy="154" r="1.1" fill="#fff" fill-opacity="0.1"/>
  </g>
</svg>
