<svg width="320" height="200" viewBox="0 0 320 200" fill="none" xmlns="http://www.w3.org/2000/svg" role="img">
  <defs>
    <linearGradient id="g1" x1="0" y1="0" x2="320" y2="200" gradientUnits="userSpaceOnUse">
      <stop stop-color="#312E81"/><stop offset="1" stop-color="#6D28D9"/>
    </linearGradient>
    <radialGradient id="o1" cx="0" cy="0" r="1" gradientUnits="userSpaceOnUse"
      gradientTransform="translate(44 24) scale(150)">
      <stop stop-color="#A78BFA" stop-opacity="0.55"/><stop offset="1" stop-color="#A78BFA" stop-opacity="0"/>
    </radialGradient>
    <linearGradient id="s1" x1="0" y1="0" x2="0" y2="1">
      <stop stop-color="#fff" stop-opacity="0.22"/><stop offset="1" stop-color="#fff" stop-opacity="0.06"/>
    </linearGradient>
    <filter id="b1" x="-60%" y="-60%" width="220%" height="220%">
      <feGaussianBlur stdDeviation="10"/>
    </filter>
    <clipPath id="c1"><rect width="320" height="200" rx="12"/></clipPath>
  </defs>
  <g clip-path="url(#c1)">
    <rect width="320" height="200" fill="url(#g1)"/>
    <rect width="320" height="200" fill="url(#o1)"/>
    <circle cx="20" cy="22" r="1.1" fill="#fff" fill-opacity="0.1"/>
    <circle cx="33" cy="22" r="1.1" fill="#fff" fill-opacity="0.1"/>
    <circle cx="46" cy="22" r="1.1" fill="#fff" fill-opacity="0.1"/>
    <circle cx="20" cy="35" r="1.1" fill="#fff" fill-opacity="0.1"/>
    <circle cx="33" cy="35" r="1.1" fill="#fff" fill-opacity="0.1"/>
    <circle cx="46" cy="35" r="1.1" fill="#fff" fill-opacity="0.1"/>
    <rect x="36" y="42" width="92" height="118" rx="12" fill="url(#s1)" stroke="#fff" stroke-opacity="0.26"/>
    <rect x="52" y="56" width="42" height="6" rx="3" fill="#FBBF24"/>
    <rect x="52" y="72" width="40" height="4" rx="2" fill="#fff" fill-opacity="0.42"/>
    <rect x="52" y="85" width="54" height="4" rx="2" fill="#fff" fill-opacity="0.38"/>
    <rect x="52" y="98" width="54" height="4" rx="2" fill="#fff" fill-opacity="0.33"/>
    <rect x="52" y="111" width="40" height="4" rx="2" fill="#fff" fill-opacity="0.28"/>
    <rect x="52" y="124" width="54" height="4" rx="2" fill="#fff" fill-opacity="0.24"/>
    <rect x="52" y="137" width="54" height="4" rx="2" fill="#fff" fill-opacity="0.20"/>
    <path d="M140 100 h20" stroke="#fff" stroke-opacity="0.55" stroke-width="2" stroke-linecap="round"/>
    <path d="M154 94 l7 6 -7 6" stroke="#fff" stroke-opacity="0.55" stroke-width="2" stroke-linecap="round" stroke-linejoin="round" fill="none"/>
    <rect x="178" y="74" width="24" height="24" rx="7" fill="#fff" fill-opacity="0.10" stroke="#fff" stroke-opacity="0.20"/>
    <rect x="208" y="74" width="24" height="24" rx="7" fill="#fff" fill-opacity="0.10" stroke="#fff" stroke-opacity="0.20"/>
    <rect x="238" y="74" width="24" height="24" rx="7" fill="#fff" fill-opacity="0.10" stroke="#fff" stroke-opacity="0.20"/>
    <rect x="268" y="74" width="24" height="24" rx="7" fill="#fff" fill-opacity="0.10" stroke="#fff" stroke-opacity="0.20"/>
    <rect x="178" y="104" width="24" height="24" rx="7" fill="#fff" fill-opacity="0.10" stroke="#fff" stroke-opacity="0.20"/>
    <rect x="208" y="104" width="24" height="24" rx="7" fill="#fff" fill-opacity="0.10" stroke="#fff" stroke-opacity="0.20"/>
    <rect x="238" y="104" width="24" height="24" rx="7" fill="#FBBF24"/>
    <circle cx="250" cy="116" r="20" fill="#FBBF24" fill-opacity="0.30" filter="url(#b1)"/>
    <rect x="268" y="104" width="24" height="24" rx="7" fill="#fff" fill-opacity="0.10" stroke="#fff" stroke-opacity="0.20"/>
    <rect x="178" y="134" width="24" height="24" rx="7" fill="#fff" fill-opacity="0.10" stroke="#fff" stroke-opacity="0.20"/>
    <rect x="208" y="134" width="24" height="24" rx="7" fill="#fff" fill-opacity="0.10" stroke="#fff" stroke-opacity="0.20"/>
    <rect x="238" y="134" width="24" height="24" rx="7" fill="#fff" fill-opacity="0.10" stroke="#fff" stroke-opacity="0.20"/>
    <rect x="268" y="134" width="24" height="24" rx="7" fill="#fff" fill-opacity="0.10" stroke="#fff" stroke-opacity="0.20"/>
  </g>
</svg>
